<svg id="Layer_1" data-name="Layer 1" xmlns="http://www.w3.org/2000/svg" viewBox="0 0 418.29 480.14"><defs><style>.cls-1{fill:#1ea0fe;}.cls-2{fill:#2ae9fd;}.cls-3{fill:#199cfc;}.cls-4{fill:#1fa6fe;}.cls-5{fill:#3cdffd;}.cls-6{fill:#1498fa;}.cls-7{fill:#31e5fd;}.cls-8{fill:#1facfe;}.cls-9{fill:#1095f8;}.cls-10{fill:#22c1fe;}.cls-11{fill:#21bafe;}.cls-12{fill:#22edfd;}.cls-13{fill:#20b2fe;}.cls-14{fill:#098ff5;}.cls-15{fill:#0b91f6;}.cls-16{fill:#0088f1;}.cls-17{fill:#048bf3;}.cls-18{fill:#20b5fe;}.cls-19{fill:#34e3fd;}.cls-20{fill:#22c7fe;}.cls-21{fill:#39e0fd;}.cls-22{fill:#37e2fd;}.cls-23{fill:#39dbfb;}.cls-24{fill:#1cf1fd;}.cls-25{fill:#1feffd;}.cls-26{fill:#23cefe;}.cls-27{fill:#35d6f9;}.cls-28{fill:#0499da;}.cls-29{fill:#16f4fd;}.cls-30{fill:#31d1f7;}.cls-31{fill:#2dccf5;}.cls-32{fill:#04a2da;}.cls-33{fill:#29c8f3;}.cls-34{fill:#fcfcfc;}.cls-35{fill:#0493da;}.cls-36{fill:#048bda;}.cls-37{fill:#0484da;}.cls-38{fill:#047eda;}.cls-39{fill:#0471da;}.cls-40{fill:#0478da;}.cls-41{fill:#045eda;}.cls-42{fill:#046ada;}.cls-43{fill:#0464da;}</style></defs><title>base</title><path class="cls-1" d="M388,325c7.11-5.81,15.3-9.95,23.06-14.75,3.9-2.42,8-4.55,12-6.81a27.59,27.59,0,0,0,5.5,7q99.08,99,198.09,198.08c2.21,2.21,4.87,4.12,5.76,7.38a2.57,2.57,0,0,1-.77,1.91c-2.84,2.68-6.24,4.6-9.37,6.89-3.65,2.23-7.14,4.72-10.72,7.08-3.41,2.22-6.82,4.45-10.09,6.88a2.78,2.78,0,0,1-2.66.51c-20-20.46-40.41-40.55-60.64-60.8Q464.9,405,391.65,331.74C389.87,330,386.51,328.64,388,325Z" transform="translate(-302.87 -271.9)"/><path class="cls-2" d="M322.07,562.09c6.33-5.76,12.2-12.05,19.18-17.08,1.71-1.4,3.11-.43,4.45.63a39.59,39.59,0,0,1,3.25,3.1q95.64,95.63,191.22,191.32c1.78,1.78,5.12,3,3.82,6.72-7.75,2.94-15.86,3.94-24.06,4.43-2.37.69-4.9-.31-7.24.65h-2.38c-.83-.45-1.85-.31-2.67-.82a60.59,60.59,0,0,0-7.78-9.07Q413,655.22,326.32,568.4C324.54,566.62,321.82,565.31,322.07,562.09Z" transform="translate(-302.87 -271.9)"/><path class="cls-3" d="M632,516c-2-2.18-4-4.44-6.1-6.54L425.61,309.11c-1.55-1.56-4-2.8-2.6-5.72,7.4-3.95,14-9.29,22.06-12.06,3.1,1.52,4.83,4.49,7.15,6.81Q550.72,396.5,649.08,495c1.74,1.75,4.59,3,4,6.31-3.05,3.23-7,5.32-10.41,8.05-1.14.9-3.29,1.22-2.54,3.54C637.32,513.58,635.64,517.33,632,516Z" transform="translate(-302.87 -271.9)"/><path class="cls-4" d="M388,325c.14,2.68,2.39,3.9,4,5.49Q493.43,432,594.92,533.47c1.59,1.59,3.85,2.78,4.06,5.45-1.31,2.88-4.15,4.06-6.48,5.81-3.74,2.52-7.33,5.27-11,7.85a3.34,3.34,0,0,1-2.67.71c-1.87-.85-3.12-2.46-4.53-3.86Q472.53,447.73,370.86,346c-2-2-5.77-3.5-3.84-7.63C373.89,333.67,380.31,328.32,388,325Z" transform="translate(-302.87 -271.9)"/><path class="cls-5" d="M639,696c-9.3,6.73-19.21,12.49-29.09,18.32-3.26,1.92-6.56,3.77-9.85,5.65-2.46.62-3.56-1.39-4.89-2.71q-84-83.94-168-167.93a17.79,17.79,0,0,1-3.91-5.13c-.49-1.08-1-2.26.78-2.73,1.64,0,2.72,1.14,3.93,2,24.4,17,48.55,34.41,72.23,52.43.66.51,1.39.91,2.08,1.38,12.36,8.93,24.23,18.55,36.94,27,10.24,9.2,22.28,11.71,35.57,9.64a14.76,14.76,0,0,1,3.45-.2,6.36,6.36,0,0,1,4.25,2.33c17.65,18.14,35.77,35.81,53.54,53.84C637.66,691.54,640.49,692.84,639,696Z" transform="translate(-302.87 -271.9)"/><path class="cls-6" d="M653.11,501.3c-.89-2.07-2.71-3.35-4.22-4.87Q549.47,397,450,297.54c-1.88-1.89-3.85-3.69-4.93-6.21a64.4,64.4,0,0,1,20.94-10c3,3.59,6.29,6.86,9.58,10.15q94.32,94.31,188.62,188.64c2.34,2.35,5,4.37,7,7A148.12,148.12,0,0,1,653.11,501.3Z" transform="translate(-302.87 -271.9)"/><path class="cls-7" d="M544,746.78c-.1-2.11-1.81-3.11-3.07-4.37q-97.14-97.17-194.3-194.31c-1.5-1.5-2.78-3.45-5.37-3.09,5.16-5.29,11.1-9.62,17-14,1.44-1,2.5-.07,3.53.73a32.92,32.92,0,0,1,3.26,3.1q98.58,98.56,197.1,197.2c1.78,1.78,5.15,3,3.84,6.72A79.08,79.08,0,0,1,544,746.78Z" transform="translate(-302.87 -271.9)"/><path class="cls-8" d="M367,338.32c-.31,3,2.17,4.34,3.87,6Q472.92,446.46,575,548.52c1.4,1.4,2.66,3,4,4.43-1.37,3.8-5.38,4.92-7.78,7.69-3.29,1.55-4.86,6.05-9.38,5.51a46.14,46.14,0,0,0-6.43-7.59Q454.74,457.94,354.14,357.25c-1.75-1.75-4.54-3-4.14-6.27A97.43,97.43,0,0,1,367,338.32Z" transform="translate(-302.87 -271.9)"/><path class="cls-9" d="M671.26,487.11c-2.28-.05-3.46-1.81-4.85-3.19Q567.76,385.3,469.13,286.65c-1.5-1.5-3.46-2.77-3.12-5.35a71.86,71.86,0,0,1,21-6.06c3,1.6,4.82,4.54,7.15,6.87q93.41,93.28,186.7,186.7c1.76,1.76,4.55,3,4.14,6.3C681.07,479.83,676.07,483.36,671.26,487.11Z" transform="translate(-302.87 -271.9)"/><path class="cls-10" d="M538.15,624.89Q519.42,612.35,502,598c-62.81-64.79-127.45-127.76-191-191.86-1.95-2-4.8-3.15-5.74-6.09,2.34-6.8,4.43-13.73,9.75-19a97.58,97.58,0,0,0,8.74,9.55Q426.26,493.06,528.69,595.54c1.86,1.85,4.16,3.39,5,6.11-.78,6.94.17,13.52,4,19.54C538.34,622.29,539,623.52,538.15,624.89Z" transform="translate(-302.87 -271.9)"/><path class="cls-11" d="M533.13,601c-1.38-1.18-2.85-2.27-4.14-3.55Q423.84,492.34,318.73,387.19c-1.71-1.71-4.11-3.08-3.69-6.12,2.48-5.32,7.31-8.12,11.94-11.15,2.12.44,3.28,2.19,4.67,3.58q103.55,103.49,207,207c1.62,1.62,3.67,3,3.91,5.6C539.56,591.17,538.16,597.25,533.13,601Z" transform="translate(-302.87 -271.9)"/><path class="cls-12" d="M322.07,562.09c1.33,1.48,2.59,3,4,4.43q88.51,88.54,177.06,177.08c2.11,2.11,4.53,4,4.87,7.31-1.59,1-3.27.54-4.93.29C492.41,750.68,482,749.1,472,745c1.06-3-1.43-4.19-3-5.74q-38.6-38.7-77.28-77.33-37.06-37-74.12-74.13a106.84,106.84,0,0,0-8.43-7.77A59,59,0,0,1,322.07,562.09Z" transform="translate(-302.87 -271.9)"/><path class="cls-13" d="M350,351c1.31,1.48,2.55,3,3.95,4.45Q456,457.51,558,559.56c1.82,1.82,4.38,3.28,4,6.5.51,1.68-.76,2.55-1.61,3.62-3.31,2-5.37,5.84-9.53,6.63-2.06-.89-3.38-2.66-4.9-4.18Q443.56,469.76,341.21,367.33c-1.76-1.77-4.52-3.05-4.18-6.29A47.57,47.57,0,0,1,350,351Z" transform="translate(-302.87 -271.9)"/><path class="cls-14" d="M520,272.8c4.64.84,9.47.55,14,2.27,1.41,2.51,3.62,4.33,5.61,6.31q84.27,84.18,168.51,168.39a4.12,4.12,0,0,1,.85,1.22,46.14,46.14,0,0,1-11.08,13c-1.41,1.14-2.48.15-3.52-.63a30.71,30.71,0,0,1-3.27-3.08Q600.93,370.15,510.87,280c-1.9-1.89-5.44-3.29-3.87-7.2a7.13,7.13,0,0,1,2.87-.16,2.11,2.11,0,0,0,2.22.06A34.44,34.44,0,0,1,520,272.8Z" transform="translate(-302.87 -271.9)"/><path class="cls-15" d="M507,273.1c0,2.12,1.73,3.14,3,4.4q91.71,91.74,183.45,183.44c1.25,1.25,2.24,3,4.38,3-4.4,3.56-7.74,8.33-12.79,11.15-1.31-1.49-2.53-3.06-3.93-4.46Q586.52,376,491.93,281.47c-1.89-1.88-3.85-3.69-4.89-6.23,5.2-1.78,10.71-1.51,16-2.48C504.4,272.58,505.76,272.16,507,273.1Z" transform="translate(-302.87 -271.9)"/><path class="cls-16" d="M573,289c31.36,17.21,62.35,35,91.46,55.91a415.07,415.07,0,0,1,38.24,30.68c10.38,9.47,14.76,21.94,16.54,35.53a50.83,50.83,0,0,1-.06,10.89l-2.46,12c-3.45.62-5.05-2.13-7-4q-24.6-24.46-49.1-49.05Q618.83,339,577,297.17C574.86,295,571.42,293.12,573,289Z" transform="translate(-302.87 -271.9)"/><path class="cls-17" d="M573,289c.2,2.7,1.9,4.5,3.69,6.29q67.62,67.59,135.21,135.23a17.69,17.69,0,0,0,4.82,3.48c-1.81,6-4.11,11.86-7.83,17-2.32-.06-3.38-2-4.75-3.34q-84-84-167.94-168c-1.1-1.1-4.09-1.79-2.28-4.55a157.76,157.76,0,0,1,33.69,10.6C569.53,286.53,571.72,287.05,573,289Z" transform="translate(-302.87 -271.9)"/><path class="cls-18" d="M337,361c1.32,1.49,2.57,3,4,4.44q103,103,206,206c1.4,1.41,2.67,3,4,4.43-.31,1.84-1.79,3-2.6,4.58-2.2,1.76-2.58,5.62-6.38,5.53-1.31-1.49-2.54-3.06-3.94-4.46Q434.67,478.16,331.26,374.74c-1.52-1.52-2.86-3.21-4.28-4.82C330,366.55,332.63,362.81,337,361Z" transform="translate(-302.87 -271.9)"/><path class="cls-19" d="M566,738.76c-.1-2.1-1.82-3.1-3.08-4.36Q462.78,634.23,362.6,534.11c-1.26-1.26-2.26-3-4.35-3.1,3.6-2.7,6.28-6.67,10.92-7.93,2.45-.49,3.56,1.5,4.89,2.83Q474.82,626.58,575.47,727.33c1.38,1.38,3.77,2.55,2.51,5.29A73,73,0,0,1,566,738.76Z" transform="translate(-302.87 -271.9)"/><path class="cls-20" d="M305.29,400.07c3.57,2.2,6.47,5.16,9.41,8.1q90.17,90.2,180.35,180.37c2.81,2.8,5.52,5.66,6.94,9.48-6.59-3.21-11.92-8.22-17.69-12.55C465.79,571.59,446.88,558.28,428,545c-1.35-1-2.64-2-4-3a5.68,5.68,0,0,1-2.81-2.06,45.73,45.73,0,0,0-6.56-8.13q-52.24-52.2-104.39-104.49c-2.37-2.38-6.1-3.7-6.72-7.66.16-3.52-.33-7.06.27-10.57C304.31,406.08,304.8,403.07,305.29,400.07Z" transform="translate(-302.87 -271.9)"/><path class="cls-21" d="M422,540l2,2c-.37,2.65,1.61,4.07,3.13,5.59q85.43,85.51,170.93,171a18.26,18.26,0,0,0,2,1.47l-12.13,6.75c-3.69-1.61-5.46-5.24-8.13-7.9Q481.32,620.58,383,522.08c-1.9-1.9-5.41-3.26-4-7.16.85-1.21,3-1,3.19-2.94,1.53-1.16,2.94-.32,4.08.55,10.93,8.31,22.32,16,33.09,24.53A12.8,12.8,0,0,1,422,540Z" transform="translate(-302.87 -271.9)"/><path class="cls-22" d="M379,514.92c.14,2.69,2.4,3.91,4,5.5q98.58,98.66,197.24,197.25a50.82,50.82,0,0,1,7.73,9.09l-10,5.86c-.14-1.88-1.67-2.81-2.81-4Q473.5,627,371.82,525.32c-.82-.82-1.77-1.5-2.65-2.24C371.42,519.13,376,517.93,379,514.92Z" transform="translate(-302.87 -271.9)"/><path class="cls-23" d="M639,696c0-1.91-1.4-2.92-2.55-4.09q-28.05-28.29-56.13-56.56c-.31-.3-.93-.3-1.4-.43.6-2.86,3.24-2.18,5.06-2.83s3.47-.94,5.19-1.44c5.49-1.72,11-3.48,16.29-5.69,2.87-.64,5.21-2.84,8.3-2.84,2.33.36,3.7,2.13,5.21,3.64q22.57,22.53,45.08,45.14c1.6,1.61,4.39,2.91,3,6.1A230.81,230.81,0,0,1,639,696Z" transform="translate(-302.87 -271.9)"/><path class="cls-24" d="M448,735c-17.82-10.07-35.72-20-53-31-.48-2.64-2.41-4.29-4.17-6Q349.91,657,309,616.09a23.76,23.76,0,0,0-5.52-4.21c-.34-6.71-.15-13.37,1.72-19.89,1.7-1.45,3.09-.44,4.44.59a32.65,32.65,0,0,1,3.26,3.08q65.81,65.8,131.56,131.65C446.45,729.31,450.14,730.92,448,735Z" transform="translate(-302.87 -271.9)"/><path class="cls-25" d="M448,735c.35-2.3-1.11-3.67-2.55-5.1L310.23,594.69c-1.42-1.42-2.7-3-5-2.7.51-4.28,2.66-8,4-12,2.34-.33,3.62,1.3,5,2.71Q393.16,661.61,472,740.6c.82.83,6.47,2.93,0,4.36C463.38,743.17,455.52,739.5,448,735Z" transform="translate(-302.87 -271.9)"/><path class="cls-26" d="M422,540Q404.48,527.21,387,514.41a10.69,10.69,0,0,0-4.77-2.43c-7.66-6-15.34-12-23-18.05-6.37-5.06-12.8-10.06-19-15.33-6.37-5.43-12.82-10.81-18.62-16.81-10-10.39-16.44-22.71-17.58-37.39a14.42,14.42,0,0,0-.27-1.46,1.61,1.61,0,0,1,.33-1.93,17.43,17.43,0,0,1,5.57,4.1q53.57,53.63,107.16,107.19C419,534.53,421.21,536.79,422,540Z" transform="translate(-302.87 -271.9)"/><path class="cls-27" d="M667,677c0-1.46-.88-2.42-1.84-3.38l-49.9-49.84A7.52,7.52,0,0,0,614,623c.43-3.1,3.59-2.61,5.29-4,4-1.91,8-4,12-6.05,2.52-1.19,4.56-3.6,7.75-3.13a47.89,47.89,0,0,0,6.74,7.89q19.19,19.1,38.27,38.28c1.49,1.49,3.39,2.72,3.86,5A181.08,181.08,0,0,1,667,677Z" transform="translate(-302.87 -271.9)"/><path class="cls-28" d="M632,516c3.09,0,4.54-4.36,8.13-3.12L653,522.31c11.94,15.53,24.72,30.37,37.15,45.49,9.9,12.05,19.49,24.36,30,35.94a2.19,2.19,0,0,1,.38,1.42c-.16,3.26.33,6.53-.27,9.77-1.67,5.86-2.45,12-6.2,17.15-1.41-1.42-.7-3.09-.54-4.69,1.26-13.17-4.21-22.39-16.33-27.51-1.21-.51-2.52-.86-3.29-2.06.25-2.55-1.16-4.41-2.66-6.21-19.59-23.49-38.78-47.32-58.46-70.73-.93-1.11-2.28-2.07-1.72-3.86Z" transform="translate(-302.87 -271.9)"/><path class="cls-29" d="M303.47,611.88c1.95-1.53,3,.06,4.15,1.21q43.14,43.13,86.27,86.23c1.41,1.41,2.52,2.69,1.11,4.68-12.27-8-25-15.41-36.7-24.26-12.22-9.21-24.33-18.48-35.82-28.69-11.93-10.59-17.57-23.45-19.2-38.71C303.26,612.19,303.4,612,303.47,611.88Z" transform="translate(-302.87 -271.9)"/><path class="cls-30" d="M687.94,661q-17.67-17.43-35.34-34.87c-3.77-3.72-7.49-7.51-11.26-11.23-1.31-1.3-2.63-2.56-2.36-4.65.54-2.35,2.68-2.66,4.41-3.49,3.91-1.19,7.12-4.05,11.25-4.71a5.42,5.42,0,0,1,1.44.14c3.08,1.3,4.48,4.35,6.7,6.54q17.76,17.5,35.29,35.24c1.5,1.5,3.41,2.74,3.89,5C697.36,653.05,693,657.45,687.94,661Z" transform="translate(-302.87 -271.9)"/><path class="cls-31" d="M702,649c-15.26-14.7-30.61-29.31-44.75-45.12A6.48,6.48,0,0,0,656,603c2.18-4.22,6.79-3.79,10.33-5.4a18.35,18.35,0,0,1,5.2-.83,7.3,7.3,0,0,1,5.43,2.12c12,12,24.25,23.68,35.8,36.09C710,640.24,706.75,645.22,702,649Z" transform="translate(-302.87 -271.9)"/><path class="cls-32" d="M719.92,604c-1.71,0-2.75-1.15-3.69-2.3-11.29-13.86-22.49-27.79-33.82-41.62C674,549.82,665.46,539.7,657,529.5c-1.77-2.14-4-4.08-4-7.19C675,538.59,696.79,555.16,711.54,579c4.42,7.15,6.79,15,8.65,23A1.55,1.55,0,0,1,719.92,604Z" transform="translate(-302.87 -271.9)"/><path class="cls-33" d="M712.77,635c-2.09-.12-3.09-1.83-4.35-3.08q-15.54-15.46-31-31c-1.52-1.52-2.9-3.28-5.44-2.92.33-2.58,2.49-2,4.1-2.4,4.59-.22,9.16-1.26,13.78-.07,1.42.37,3,.24,4.06,1.52,4.38,2.22,9.18,3.57,12.87,7.17,7.28,7.13,9.6,15.58,7.47,25.41a22.71,22.71,0,0,0-.25,2.47C714.26,633.33,713.31,634.07,712.77,635Z" transform="translate(-302.87 -271.9)"/><path class="cls-34" d="M304.08,421l-.33,1.93a26.7,26.7,0,0,1,.06-13.86C304.06,413.05,303.09,417.06,304.08,421Z" transform="translate(-302.87 -271.9)"/><path class="cls-34" d="M719.92,604l.27-2a22.15,22.15,0,0,1,0,12.9C720,611.29,721,607.61,719.92,604Z" transform="translate(-302.87 -271.9)"/><path class="cls-34" d="M719.19,422l.06-10.89A16.72,16.72,0,0,1,719.19,422Z" transform="translate(-302.87 -271.9)"/><path class="cls-34" d="M520,272.8l-7.86-.12A9.61,9.61,0,0,1,520,272.8Z" transform="translate(-302.87 -271.9)"/><path class="cls-34" d="M507,273.1l-3.94-.34a8,8,0,0,1,6.81-.14Z" transform="translate(-302.87 -271.9)"/><path class="cls-34" d="M503.07,751.2l4.93-.29,2.31,1C507.89,751.72,505.37,752.69,503.07,751.2Z" transform="translate(-302.87 -271.9)"/><path class="cls-34" d="M512.69,751.86c2.31-1.31,4.81-.63,7.24-.65C517.63,752.69,515.11,751.71,512.69,751.86Z" transform="translate(-302.87 -271.9)"/><path class="cls-35" d="M693.9,597c-6,0-11.91-1.42-17.88-.15,1.81-2.61.82-4.52-1.06-6.81q-25.5-30.84-50.87-61.78c-1-1.28-2.27-2.47-2.15-4.32l9-7q23.34,28.1,46.66,56.18c5.59,6.76,11,13.65,16.53,20.49C695.11,594.85,697.32,596.2,693.9,597Z" transform="translate(-302.87 -271.9)"/><path class="cls-36" d="M621.94,524q27.55,33.3,55.09,66.62c2,2.47,4.09,5-1,6.29-1.37.29-3-.29-4.06,1.1a11.13,11.13,0,0,0-5,.86c-4.09-2.52-6.4-6.71-9.32-10.26q-21.51-26.15-43.08-52.26c-1.34-1.62-3.07-3.08-3.54-5.33C614.4,528.29,617.86,525.64,621.94,524Z" transform="translate(-302.87 -271.9)"/><path class="cls-37" d="M611,531c6.77,6.33,12.07,13.92,18,21q15.52,18.62,30.86,37.39c2.49,3.06,5.42,5.81,7.11,9.47A44.43,44.43,0,0,0,656,603l-1-.07c-5.89-4.49-9.73-10.83-14.39-16.4-12.77-15.27-25.33-30.72-38-46.06A7.05,7.05,0,0,1,601,538C603.8,535,607.41,533,611,531Z" transform="translate(-302.87 -271.9)"/><path class="cls-38" d="M601,538c4.65,2.31,6.86,7,10,10.71,14.22,16.76,28.06,33.84,42,50.83a24.62,24.62,0,0,1,2,3.41l-11,5c-5.52-4.18-9-10.15-13.36-15.35q-18.2-21.79-36.14-43.83c-1.14-1.4-2.56-2.67-2.47-4.72l7-5.08Z" transform="translate(-302.87 -271.9)"/><path class="cls-39" d="M632,613.9l-12.05,5.92c-5.81-4.34-9.39-10.67-14-16.07-11-12.91-21.49-26.19-32.41-39.14-1.17-1.38-2.43-2.75-2.65-4.69,2-3.1,5.46-4.58,8.1-7l2-1c2.47-1.43,3.75.54,4.93,2,14.87,18.3,30,36.39,44.92,54.65C632.09,610.17,633.58,611.72,632,613.9Z" transform="translate(-302.87 -271.9)"/><path class="cls-40" d="M632,613.9c.29-3.91-3.1-5.8-5.05-8.22-13.79-17.17-27.88-34.1-41.9-51.08-1-1.26-2.14-2.62-4-2.61a55.37,55.37,0,0,1,11-8q24.81,30.06,49.59,60.13A34.74,34.74,0,0,1,644,607.9l-5,2.31Z" transform="translate(-302.87 -271.9)"/><path class="cls-41" d="M590,631.74l-11,3.22c-6.59.38-13.08,1.53-19.79.43a38.73,38.73,0,0,1-21-10.49c-2.17-4.43-5-8.49-5.66-13.66-.42-3.53-.7-6.88.64-10.23,3-5,5.29-10.35,8.88-15,2.7-1.32,3.25-4.78,6-6,2.53-.56,3.49,1.49,4.68,3,11.76,14.44,23.66,28.76,35.49,43.13C589.5,627.68,591.38,629.24,590,631.74Z" transform="translate(-302.87 -271.9)"/><path class="cls-42" d="M570.89,559.92c6.86,8.06,13.8,16,20.55,24.19,8.67,10.46,17.19,21,25.73,31.59,1,1.28,1.85,2.74,2.76,4.12L614,623,606,625.91c-6.67-6-11.67-13.53-17.4-20.37-8.93-10.67-17.85-21.36-26.5-32.26-1-1.3-2.18-2.53-2.17-4.34l2.11-2.88C565.65,565,567.15,560.84,570.89,559.92Z" transform="translate(-302.87 -271.9)"/><path class="cls-43" d="M559.91,568.94q22.43,27.16,44.86,54.32a4.28,4.28,0,0,1,1.21,2.65c-5.06,2.68-10.58,4.15-16,5.83-2.33-6.41-7.69-10.63-11.7-15.79-8.59-11.09-17.7-21.77-26.65-32.58A38.35,38.35,0,0,0,548,580c0-2.07,1.48-3.08,3-4.07Z" transform="translate(-302.87 -271.9)"/></svg>