<svg id="Layer_1" data-name="Layer 1" xmlns="http://www.w3.org/2000/svg" viewBox="0 0 575.88 854.62"><defs><style>.cls-1{fill:#1ea0fe;}.cls-2{fill:#2ae9fd;}.cls-3{fill:#199cfc;}.cls-4{fill:#1fa6fe;}.cls-5{fill:#3cdffd;}.cls-6{fill:#1498fa;}.cls-7{fill:#31e5fd;}.cls-8{fill:#1facfe;}.cls-9{fill:#1095f8;}.cls-10{fill:#22c1fe;}.cls-11{fill:#21bafe;}.cls-12{fill:#22edfd;}.cls-13{fill:#20b2fe;}.cls-14{fill:#098ff5;}.cls-15{fill:#0b91f6;}.cls-16{fill:#0088f1;}.cls-17{fill:#048bf3;}.cls-18{fill:#20b5fe;}.cls-19{fill:#34e3fd;}.cls-20{fill:#22c7fe;}.cls-21{fill:#39e0fd;}.cls-22{fill:#37e2fd;}.cls-23{fill:#39dbfb;}.cls-24{fill:#1cf1fd;}.cls-25{fill:#1feffd;}.cls-26{fill:#23cefe;}.cls-27{fill:#35d6f9;}.cls-28{fill:#0499da;}.cls-29{fill:#16f4fd;}.cls-30{fill:#31d1f7;}.cls-31{fill:#2dccf5;}.cls-32{fill:#04a2da;}.cls-33{fill:#29c8f3;}.cls-34{fill:#fcfcfc;}.cls-35{fill:#0493da;}.cls-36{fill:#048bda;}.cls-37{fill:#0484da;}.cls-38{fill:#047eda;}.cls-39{fill:#0471da;}.cls-40{fill:#0478da;}.cls-41{fill:#045eda;}.cls-42{fill:#046ada;}.cls-43{fill:#0464da;}.cls-44{font-size:118px;font-family:ProductSans-Bold, Product Sans;font-weight:700;}.cls-45{letter-spacing:-0.02em;}.cls-46{letter-spacing:0em;}.cls-47{letter-spacing:0em;}.cls-48{letter-spacing:0em;}</style></defs><title>logo-text</title><path class="cls-1" d="M334.22,164.66c9.79-8,21.07-13.7,31.75-20.31,5.37-3.32,11-6.26,16.47-9.38,1.86,3.73,4.64,6.71,7.57,9.64Q526.41,280.93,662.73,417.32c3,3,6.7,5.67,7.93,10.16a3.49,3.49,0,0,1-1.06,2.63c-3.91,3.69-8.59,6.33-12.89,9.49-5,3.07-9.84,6.5-14.77,9.74-4.7,3.06-9.38,6.13-13.88,9.48-1.14.69-2.3,1.28-3.68.71-27.56-28.17-55.62-55.84-83.47-83.72Q440.1,274.89,339.26,174C336.8,171.55,332.19,169.74,334.22,164.66Z" transform="translate(-217.03 -91.62)"/><path class="cls-2" d="M243.47,491.15c8.71-7.94,16.79-16.59,26.4-23.53,2.36-1.92,4.28-.58,6.12.88a53,53,0,0,1,4.48,4.26q131.67,131.67,263.27,263.4c2.45,2.46,7,4.19,5.25,9.26-10.67,4-21.83,5.42-33.12,6.09-3.26,1-6.74-.42-10,.91h-3.27c-1.15-.62-2.55-.42-3.68-1.13a83.74,83.74,0,0,0-10.71-12.48q-119.52-119.43-238.93-239C246.87,497.38,243.12,495.58,243.47,491.15Z" transform="translate(-217.03 -91.62)"/><path class="cls-3" d="M670.2,427.71c-2.79-3-5.49-6.11-8.39-9Q523.93,280.76,386,142.85c-2.13-2.14-5.49-3.85-3.57-7.88,10.18-5.43,19.3-12.79,30.37-16.59,4.26,2.08,6.65,6.18,9.85,9.37q135.6,135.42,271,271c2.4,2.4,6.32,4.13,5.55,8.68-4.2,4.45-9.6,7.33-14.33,11.08-1.57,1.24-4.54,1.69-3.5,4.88C677.48,424.36,675.18,429.52,670.2,427.71Z" transform="translate(-217.03 -91.62)"/><path class="cls-4" d="M334.22,164.66c.19,3.7,3.29,5.37,5.48,7.56Q479.4,312,619.11,451.74c2.19,2.2,5.31,3.83,5.6,7.5-1.8,4-5.71,5.59-8.93,8-5.15,3.48-10.09,7.26-15.2,10.82a4.65,4.65,0,0,1-3.67,1c-2.58-1.17-4.3-3.38-6.23-5.31q-140.07-140-280-280.16c-2.74-2.74-7.94-4.8-5.27-10.5C314.8,176.66,323.64,169.3,334.22,164.66Z" transform="translate(-217.03 -91.62)"/><path class="cls-5" d="M679.81,675.56c-12.8,9.26-26.45,17.2-40,25.22-4.49,2.65-9,5.19-13.56,7.78-3.4.85-4.91-1.92-6.73-3.73Q503.8,589.27,388.22,473.63a24.6,24.6,0,0,1-5.39-7.06c-.68-1.48-1.36-3.11,1.09-3.76,2.24,0,3.74,1.57,5.41,2.74,33.59,23.45,66.83,47.38,99.43,72.19.91.69,1.92,1.24,2.86,1.89,17,12.3,33.37,25.54,50.87,37.2,14.09,12.67,30.67,16.12,49,13.27a20,20,0,0,1,4.76-.26c2.45.15,4.19,1.48,5.85,3.19,24.3,25,49.25,49.31,73.71,74.13C678,669.37,681.85,671.15,679.81,675.56Z" transform="translate(-217.03 -91.62)"/><path class="cls-6" d="M699.23,407.45c-1.22-2.85-3.73-4.61-5.81-6.7Q556.53,263.81,419.6,126.92c-2.6-2.59-5.31-5.08-6.79-8.54a88.49,88.49,0,0,1,28.83-13.82c4.09,4.94,8.65,9.44,13.19,14Q584.68,248.37,714.5,378.25c3.23,3.23,6.91,6,9.72,9.66A205,205,0,0,1,699.23,407.45Z" transform="translate(-217.03 -91.62)"/><path class="cls-7" d="M549,745.42c-.13-2.9-2.49-4.28-4.22-6Q411,605.63,277.26,471.89c-2.06-2.07-3.82-4.75-7.39-4.27,7.1-7.27,15.28-13.24,23.41-19.27,2-1.43,3.44-.09,4.86,1a47.41,47.41,0,0,1,4.48,4.26Q438.34,589.34,574,725.12c2.45,2.45,7.1,4.16,5.3,9.25A108.42,108.42,0,0,1,549,745.42Z" transform="translate(-217.03 -91.62)"/><path class="cls-8" d="M305.36,183.06c-.44,4.18,3,6,5.31,8.31q140.47,140.58,281,281.09c1.94,1.93,3.67,4.06,5.5,6.1-1.88,5.23-7.41,6.78-10.7,10.59-4.54,2.13-6.7,8.33-12.93,7.58a63,63,0,0,0-8.84-10.45Q426.13,347.76,287.62,209.13c-2.42-2.41-6.26-4.16-5.71-8.64A135.39,135.39,0,0,1,305.36,183.06Z" transform="translate(-217.03 -91.62)"/><path class="cls-9" d="M724.22,387.91c-3.14-.06-4.77-2.48-6.68-4.39Q581.72,247.74,445.93,111.92c-2.06-2.06-4.76-3.8-4.29-7.36a99.41,99.41,0,0,1,29-8.34c4.18,2.21,6.62,6.25,9.83,9.46Q609,234.11,737.48,362.72c2.42,2.43,6.26,4.19,5.69,8.68C737.72,377.9,730.83,382.75,724.22,387.91Z" transform="translate(-217.03 -91.62)"/><path class="cls-10" d="M541,577.61q-25.8-17.28-49.79-37c-86.48-89.2-175.47-175.9-262.9-264.15-2.69-2.72-6.61-4.33-7.9-8.38,3.22-9.36,6.09-18.9,13.41-26.15a133.74,133.74,0,0,0,12.05,13.13q141.07,141,282.11,282.13c2.55,2.56,5.73,4.68,6.87,8.42-1.07,9.56.24,18.61,5.45,26.91C541.21,574,542.15,575.72,541,577.61Z" transform="translate(-217.03 -91.62)"/><path class="cls-11" d="M534,544.73c-1.9-1.62-3.92-3.13-5.69-4.89Q383.57,395.12,238.86,250.35c-2.35-2.35-5.66-4.25-5.08-8.42,3.42-7.33,10.07-11.19,16.44-15.36,2.93.61,4.52,3,6.43,4.93Q399.21,374,541.7,516.54c2.22,2.22,5,4.12,5.38,7.71C542.9,531.18,541,539.55,534,544.73Z" transform="translate(-217.03 -91.62)"/><path class="cls-12" d="M243.47,491.15c1.83,2,3.57,4.16,5.5,6.09Q370.85,619.16,492.75,741c2.9,2.9,6.23,5.53,6.69,10.06-2.19,1.34-4.49.74-6.78.4-14.68-.71-29.07-2.89-42.74-8.59,1.45-4.09-2-5.77-4.11-7.9q-53.15-53.28-106.4-106.46-51-51-102-102.07a148.47,148.47,0,0,0-11.61-10.69A81.21,81.21,0,0,1,243.47,491.15Z" transform="translate(-217.03 -91.62)"/><path class="cls-13" d="M281.91,200.49c1.81,2,3.51,4.2,5.44,6.13q140.47,140.53,281,281c2.51,2.51,6,4.52,5.5,8.95.7,2.31-1.05,3.51-2.22,5-4.55,2.78-7.39,8-13.12,9.13-2.83-1.24-4.66-3.67-6.75-5.76Q410.75,364,269.82,223c-2.42-2.43-6.22-4.2-5.76-8.65C269.32,208.83,275.05,203.93,281.91,200.49Z" transform="translate(-217.03 -91.62)"/><path class="cls-14" d="M515.89,92.86c6.4,1.16,13.05.76,19.26,3.13,1.93,3.46,5,6,7.71,8.69q116,115.89,232,231.83a5.64,5.64,0,0,1,1.17,1.68A63.16,63.16,0,0,1,760.78,356c-1.94,1.57-3.41.21-4.85-.86a41.9,41.9,0,0,1-4.49-4.25q-124.07-124-248.05-248.18c-2.6-2.61-7.48-4.53-5.32-9.92a9.74,9.74,0,0,1,3.95-.21,3,3,0,0,0,3.06.08A47.08,47.08,0,0,1,515.89,92.86Z" transform="translate(-217.03 -91.62)"/><path class="cls-15" d="M498.07,93.27c.05,2.92,2.38,4.33,4.12,6.07q126.26,126.3,252.56,252.54c1.73,1.73,3.08,4.14,6,4.16-6.06,4.9-10.66,11.48-17.61,15.36-1.8-2.06-3.48-4.22-5.41-6.15Q607.56,235,477.32,104.8c-2.6-2.59-5.29-5.08-6.72-8.58,7.15-2.44,14.73-2.07,22-3.41C494.49,92.56,496.36,92,498.07,93.27Z" transform="translate(-217.03 -91.62)"/><path class="cls-16" d="M589,115.11c43.17,23.69,85.83,48.2,125.91,77a573.77,573.77,0,0,1,52.65,42.23c14.28,13,20.32,30.21,22.76,48.91a69.1,69.1,0,0,1-.08,15l-3.39,16.49c-4.74.86-6.94-2.92-9.58-5.54q-33.88-33.68-67.61-67.52Q652,184.07,594.48,126.41C591.49,123.41,586.76,120.83,589,115.11Z" transform="translate(-217.03 -91.62)"/><path class="cls-17" d="M589,115.11c.26,3.72,2.6,6.2,5.07,8.66Q687.12,216.83,780.18,310a24.46,24.46,0,0,0,6.63,4.78c-2.49,8.33-5.65,16.34-10.77,23.46-3.19-.09-4.66-2.72-6.54-4.6Q653.82,218,538.28,102.26c-1.51-1.53-5.62-2.47-3.13-6.27a216.59,216.59,0,0,1,46.38,14.59C584.15,111.77,587.17,112.48,589,115.11Z" transform="translate(-217.03 -91.62)"/><path class="cls-18" d="M264.06,214.35c1.82,2,3.54,4.18,5.47,6.12Q411.31,362.29,553.12,504.1c1.94,1.94,3.68,4.06,5.52,6.09-.44,2.54-2.47,4.16-3.59,6.32-3,2.42-3.54,7.74-8.78,7.61-1.8-2-3.5-4.21-5.43-6.14Q398.49,375.59,256.12,233.2c-2.09-2.09-3.94-4.42-5.9-6.63C254.34,221.93,258,216.78,264.06,214.35Z" transform="translate(-217.03 -91.62)"/><path class="cls-19" d="M579.28,734.37c-.15-2.89-2.52-4.26-4.25-6Q437.18,590.46,299.27,452.62c-1.74-1.74-3.11-4.1-6-4.27,5-3.71,8.64-9.18,15-10.92,3.38-.66,4.9,2.07,6.74,3.91q138.7,138.59,277.28,277.3c1.9,1.9,5.2,3.51,3.46,7.29A101.5,101.5,0,0,1,579.28,734.37Z" transform="translate(-217.03 -91.62)"/><path class="cls-20" d="M220.37,268.08c4.9,3,8.9,7.11,12.94,11.16Q357.45,403.41,481.62,527.56c3.86,3.85,7.59,7.8,9.55,13.05-9.07-4.41-16.41-11.32-24.36-17.28-25.48-19.11-51.52-37.42-77.55-55.76-1.85-1.31-3.63-2.73-5.44-4.1a7.87,7.87,0,0,1-3.86-2.83,63.5,63.5,0,0,0-9-11.2Q299,377.57,227.2,305.58c-3.26-3.28-8.39-5.1-9.25-10.54.23-4.85-.45-9.72.38-14.55Z" transform="translate(-217.03 -91.62)"/><path class="cls-21" d="M381.06,460.71l2.76,2.76c-.51,3.65,2.23,5.61,4.31,7.7Q505.76,588.91,623.47,706.53a22.07,22.07,0,0,0,2.74,2l-16.7,9.3c-5.08-2.22-7.52-7.22-11.2-10.88Q462.71,571.67,327.39,436.07c-2.62-2.62-7.46-4.5-5.56-9.86,1.17-1.67,4.14-1.39,4.39-4.06,2.12-1.6,4-.43,5.62.76,15,11.44,30.73,22,45.56,33.77A18,18,0,0,1,381.06,460.71Z" transform="translate(-217.03 -91.62)"/><path class="cls-22" d="M321.83,426.21c.2,3.7,3.3,5.37,5.5,7.57Q463.05,569.61,598.87,705.34c3.9,3.89,7.75,7.79,10.64,12.52l-13.72,8.07c-.19-2.6-2.29-3.88-3.87-5.46q-140-140-280-280c-1.13-1.13-2.43-2.06-3.65-3.09C311.41,432,317.65,430.34,321.83,426.21Z" transform="translate(-217.03 -91.62)"/><path class="cls-23" d="M679.81,675.56c0-2.62-1.92-4-3.51-5.63Q637.69,631,599,592.06c-.42-.42-1.27-.41-1.92-.6.83-3.93,4.46-3,7-3.88,2.32-.82,4.77-1.29,7.15-2,7.55-2.37,15.1-4.79,22.42-7.83,4-.89,7.18-3.91,11.43-3.91,3.21.49,5.09,2.93,7.17,5q31.08,31,62.07,62.14c2.19,2.21,6,4,4.05,8.41A318.45,318.45,0,0,1,679.81,675.56Z" transform="translate(-217.03 -91.62)"/><path class="cls-24" d="M416.84,729.2c-24.53-13.87-49.18-27.55-73-42.68-.66-3.63-3.32-5.9-5.74-8.32q-56.34-56.36-112.67-112.71a32.83,32.83,0,0,0-7.6-5.79c-.47-9.24-.21-18.41,2.37-27.39,2.33-2,4.26-.6,6.11.81a45,45,0,0,1,4.48,4.25Q321.42,628,412,718.61C414.7,721.37,419.79,723.59,416.84,729.2Z" transform="translate(-217.03 -91.62)"/><path class="cls-25" d="M416.84,729.2c.48-3.17-1.52-5.05-3.5-7Q320.24,629.11,227.16,536c-1.94-1.94-3.71-4.17-6.93-3.71.7-5.89,3.65-11,5.53-16.52,3.22-.45,5,1.79,6.93,3.73q108.63,108.65,217.16,217.4c1.13,1.13,8.91,4,.07,6C438,740.45,427.19,735.4,416.84,729.2Z" transform="translate(-217.03 -91.62)"/><path class="cls-26" d="M381.06,460.71q-24.15-17.59-48.27-35.21c-2-1.5-4-3-6.57-3.35-10.54-8.28-21.12-16.52-31.62-24.85-8.77-7-17.62-13.85-26.15-21.11-8.76-7.46-17.64-14.88-25.63-23.14-13.82-14.3-22.63-31.26-24.21-51.47a17.48,17.48,0,0,0-.37-2c-.3-1-.44-1.89.46-2.64a24,24,0,0,1,7.67,5.64q73.74,73.82,147.53,147.57C377,453.2,380,456.32,381.06,460.71Z" transform="translate(-217.03 -91.62)"/><path class="cls-27" d="M718.36,649.41c0-2-1.21-3.35-2.52-4.66q-34.35-34.31-68.71-68.62a10,10,0,0,0-1.69-1.13c.59-4.26,4.95-3.59,7.28-5.58,5.58-2.62,11.06-5.43,16.5-8.32,3.48-1.63,6.28-5,10.68-4.31a66.27,66.27,0,0,0,9.28,10.86q26.4,26.29,52.69,52.7c2,2.06,4.67,3.75,5.31,6.92A250.44,250.44,0,0,1,718.36,649.41Z" transform="translate(-217.03 -91.62)"/><path class="cls-28" d="M670.2,427.71c4.26-.06,6.26-6,11.2-4.3l17.64,13c16.43,21.39,34,41.82,51.14,62.64,13.64,16.58,26.83,33.54,41.25,49.47a3.09,3.09,0,0,1,.53,2c-.22,4.49.44,9-.38,13.45-2.29,8.07-3.37,16.58-8.53,23.62-1.94-2-1-4.27-.75-6.47,1.74-18.12-5.79-30.82-22.48-37.86-1.67-.71-3.47-1.19-4.54-2.84.36-3.52-1.59-6.08-3.66-8.56-27-32.33-53.38-65.14-80.47-97.38-1.29-1.52-3.15-2.84-2.37-5.3Z" transform="translate(-217.03 -91.62)"/><path class="cls-29" d="M217.86,559.7c2.68-2.11,4.13.07,5.72,1.66Q283,620.73,342.35,680.07c1.94,1.94,3.47,3.72,1.52,6.45-16.88-11.06-34.38-21.22-50.53-33.39-16.82-12.69-33.49-25.46-49.31-39.51-16.42-14.58-24.19-32.28-26.44-53.3C217.57,560.13,217.77,559.91,217.86,559.7Z" transform="translate(-217.03 -91.62)"/><path class="cls-30" d="M747.18,627.27q-24.33-24-48.65-48c-5.2-5.13-10.31-10.34-15.5-15.47-1.81-1.79-3.63-3.52-3.26-6.4.75-3.23,3.69-3.66,6.08-4.8,5.38-1.64,9.8-5.58,15.48-6.49a8.21,8.21,0,0,1,2,.19c4.25,1.79,6.17,6,9.23,9,16.3,16.06,32.45,32.29,48.59,48.52,2.06,2.07,4.69,3.77,5.35,6.94C760.15,616.38,754.18,622.43,747.18,627.27Z" transform="translate(-217.03 -91.62)"/><path class="cls-31" d="M766.48,610.76c-21-20.24-42.14-40.35-61.6-62.13a9.14,9.14,0,0,0-1.66-1.17c3-5.8,9.35-5.22,14.22-7.43a25,25,0,0,1,7.17-1.13,10.05,10.05,0,0,1,7.47,2.9c16.48,16.52,33.38,32.61,49.29,49.69C777.48,598.74,773.08,605.6,766.48,610.76Z" transform="translate(-217.03 -91.62)"/><path class="cls-32" d="M791.21,548.83c-2.35,0-3.79-1.58-5.08-3.16-15.54-19.09-31-38.27-46.57-57.31-11.55-14.11-23.33-28-35-42.08-2.44-2.95-5.45-5.62-5.55-9.91,30.37,22.42,60.32,45.23,80.63,78.08,6.08,9.84,9.35,20.59,11.91,31.68A2.13,2.13,0,0,1,791.21,548.83Z" transform="translate(-217.03 -91.62)"/><path class="cls-33" d="M781.37,591.49c-2.88-.15-4.25-2.51-6-4.23Q754,566,732.67,544.58c-2.1-2.1-4-4.52-7.48-4,.45-3.55,3.41-2.79,5.64-3.31,6.31-.3,12.61-1.74,19-.09,2,.51,4.12.33,5.6,2.08,6,3.07,12.64,4.92,17.71,9.88,10,9.82,13.22,21.45,10.29,35a29.21,29.21,0,0,0-.34,3.4C783.42,589.23,782.11,590.24,781.37,591.49Z" transform="translate(-217.03 -91.62)"/><path class="cls-34" d="M218.7,296.92c-.15.88-.3,1.76-.46,2.64a36.81,36.81,0,0,1,.09-19.07C218.68,286,217.33,291.47,218.7,296.92Z" transform="translate(-217.03 -91.62)"/><path class="cls-34" d="M791.21,548.83l.37-2.7a30.36,30.36,0,0,1,0,17.76C791.3,558.88,792.69,553.82,791.21,548.83Z" transform="translate(-217.03 -91.62)"/><path class="cls-34" d="M790.2,298.24l.08-15A23,23,0,0,1,790.2,298.24Z" transform="translate(-217.03 -91.62)"/><path class="cls-34" d="M515.89,92.86l-10.81-.16A13.19,13.19,0,0,1,515.89,92.86Z" transform="translate(-217.03 -91.62)"/><path class="cls-34" d="M498.07,93.27l-5.42-.46c3.09-1.6,6.22-1.38,9.37-.19Z" transform="translate(-217.03 -91.62)"/><path class="cls-34" d="M492.66,751.5l6.78-.4,3.19,1.31C499.3,752.21,495.82,753.56,492.66,751.5Z" transform="translate(-217.03 -91.62)"/><path class="cls-34" d="M505.9,752.42c3.19-1.81,6.62-.88,10-.91C512.7,753.55,509.23,752.21,505.9,752.42Z" transform="translate(-217.03 -91.62)"/><path class="cls-35" d="M755.39,539.24c-8.21.06-16.4-1.94-24.62-.2,2.49-3.6,1.13-6.23-1.47-9.37q-35.09-42.46-70-85.06c-1.43-1.76-3.13-3.4-3-5.95l12.46-9.56q32.13,38.67,64.24,77.34c7.7,9.31,15.19,18.79,22.76,28.21C757.06,536.24,760.09,538.1,755.39,539.24Z" transform="translate(-217.03 -91.62)"/><path class="cls-36" d="M656.32,438.66q37.92,45.85,75.85,91.72c2.8,3.4,5.62,6.83-1.4,8.67-1.89.4-4.1-.41-5.58,1.51a15.27,15.27,0,0,0-6.94,1.18c-5.63-3.47-8.8-9.24-12.82-14.13q-29.62-36-59.32-71.94c-1.85-2.24-4.22-4.25-4.88-7.34C645.94,444.61,650.7,441,656.32,438.66Z" transform="translate(-217.03 -91.62)"/><path class="cls-37" d="M641.23,448.33c9.34,8.71,16.63,19.16,24.75,28.9q21.38,25.63,42.48,51.48c3.44,4.2,7.47,8,9.79,13a61.34,61.34,0,0,0-15,5.72l-1.44-.08c-8.12-6.19-13.4-14.92-19.81-22.59-17.59-21-34.88-42.29-52.35-63.41a9.73,9.73,0,0,1-2.21-3.43C631.34,453.77,636.31,451.09,641.23,448.33Z" transform="translate(-217.03 -91.62)"/><path class="cls-38" d="M627.41,458c6.41,3.19,9.45,9.67,13.76,14.75,19.58,23.06,38.64,46.58,57.83,70a34.49,34.49,0,0,1,2.78,4.71l-15.15,6.84c-7.6-5.76-12.41-14-18.39-21.14q-25.07-30-49.76-60.34c-1.57-1.93-3.52-3.68-3.39-6.51l9.62-7Z" transform="translate(-217.03 -91.62)"/><path class="cls-39" d="M670.14,562.48l-16.59,8.14c-8-6-12.93-14.68-19.25-22.12-15.09-17.77-29.58-36-44.62-53.88-1.61-1.91-3.35-3.79-3.65-6.46,2.8-4.27,7.51-6.31,11.15-9.6l2.74-1.33c3.41-2,5.17.75,6.79,2.74,20.48,25.2,41.3,50.11,61.85,75.25C670.29,557.34,672.34,559.47,670.14,562.48Z" transform="translate(-217.03 -91.62)"/><path class="cls-40" d="M670.14,562.48c.39-5.39-4.27-8-6.95-11.32-19-23.64-38.39-46.95-57.7-70.33-1.43-1.74-2.94-3.6-5.57-3.6a76.79,76.79,0,0,1,15.17-11q34.14,41.38,68.27,82.79a46.93,46.93,0,0,1,3.27,5.2l-6.86,3.17Z" transform="translate(-217.03 -91.62)"/><path class="cls-41" d="M612.3,587l-15.2,4.42c-9.07.53-18,2.11-27.25.6A53.27,53.27,0,0,1,541,577.61c-3-6.09-7-11.68-7.79-18.8-.58-4.85-1-9.47.87-14.08,4.12-6.85,7.29-14.25,12.23-20.61,3.72-1.81,4.48-6.58,8.27-8.31,3.49-.78,4.81,2.05,6.45,4.07,16.19,19.88,32.57,39.59,48.87,59.38C611.66,581.45,614.24,583.59,612.3,587Z" transform="translate(-217.03 -91.62)"/><path class="cls-42" d="M586,488.16c9.44,11.09,19,22.09,28.3,33.3,11.93,14.4,23.66,29,35.42,43.5,1.43,1.76,2.54,3.77,3.8,5.66L645.44,575l-11.1,4c-9.18-8.32-16.06-18.62-24-28-12.3-14.68-24.57-29.4-36.49-44.41-1.42-1.8-3-3.48-3-6l2.91-4C578.82,495.14,580.88,489.42,586,488.16Z" transform="translate(-217.03 -91.62)"/><path class="cls-43" d="M570.91,500.57q30.87,37.41,61.77,74.79a5.87,5.87,0,0,1,1.66,3.64c-7,3.71-14.56,5.72-22,8-3.2-8.83-10.59-14.63-16.1-21.75-11.83-15.26-24.38-30-36.7-44.85a51.84,51.84,0,0,0-5-4.63c0-2.85,2-4.25,4.1-5.61Z" transform="translate(-217.03 -91.62)"/><text class="cls-44" transform="translate(14.43 820.99)">Se<tspan class="cls-45" x="133.46" y="0">n</tspan><tspan class="cls-46" x="198.24" y="0">t</tspan><tspan class="cls-47" x="246.14" y="0">i</tspan><tspan class="cls-48" x="276.71" y="0">n</tspan><tspan x="343.85" y="0">al.ai</tspan></text></svg>